<svg id="Capa_1" data-name="Capa 1" xmlns="http://www.w3.org/2000/svg" viewBox="0 0 250 70"><defs><style>.cls-1{fill:#3f6;}.cls-2{fill:#3cf;}.cls-3{fill:#2288cf;}.cls-4{fill:#060;}</style></defs><title>Mesa de trabajo 1</title><path class="cls-1" d="M76.26,30.5A2.07,2.07,0,0,1,75,30.22a1.1,1.1,0,0,1-.47-.71,5.58,5.58,0,0,1-.08-.94V14.88a5.11,5.11,0,0,1,.08-.9,1.08,1.08,0,0,1,.47-.7A2.18,2.18,0,0,1,76.31,13a4.36,4.36,0,0,1,.82.06,1.08,1.08,0,0,1,.47.2l.38.34,6.83,8h-.47l6.88-8a1.69,1.69,0,0,1,.94-.54,4,4,0,0,1,.77-.06,2.1,2.1,0,0,1,1.24.28,1.2,1.2,0,0,1,.48.71,4.69,4.69,0,0,1,.09.94V28.62a4.29,4.29,0,0,1-.09.9,1.18,1.18,0,0,1-.48.7,2.13,2.13,0,0,1-1.26.28,2.1,2.1,0,0,1-1.24-.28,1.19,1.19,0,0,1-.48-.72,4.73,4.73,0,0,1-.09-.93V19.14l-5,5.87c-.08.07-.18.17-.31.31a1.82,1.82,0,0,1-.47.38,1.6,1.6,0,0,1-.79.16,1.54,1.54,0,0,1-.75-.16,1.69,1.69,0,0,1-.48-.37L83,25l-5-5.84v9.48a4.29,4.29,0,0,1-.09.9,1.12,1.12,0,0,1-.47.7A2.08,2.08,0,0,1,76.26,30.5Z"/><path class="cls-1" d="M107.44,30.71a9.82,9.82,0,0,1-3.76-.67A7.3,7.3,0,0,1,101,28.19a7.76,7.76,0,0,1-1.58-2.71,10.13,10.13,0,0,1-.52-3.29V14.92A4.59,4.59,0,0,1,99,14a1.17,1.17,0,0,1,.48-.72,2.15,2.15,0,0,1,1.23-.27,2.34,2.34,0,0,1,1.29.27,1.06,1.06,0,0,1,.46.72,5.64,5.64,0,0,1,.08,1v7.24a5.41,5.41,0,0,0,.49,2.31,4.08,4.08,0,0,0,1.6,1.73,5.53,5.53,0,0,0,2.86.66,5.84,5.84,0,0,0,2.78-.59,3.69,3.69,0,0,0,1.62-1.65,5.4,5.4,0,0,0,.54-2.48V14.8a3.49,3.49,0,0,1,.1-.88,1.26,1.26,0,0,1,.49-.66,2.22,2.22,0,0,1,1.21-.26,2.11,2.11,0,0,1,1.28.29A1.19,1.19,0,0,1,116,14a4.7,4.7,0,0,1,.08.94v7.29a10.13,10.13,0,0,1-.52,3.29,7.29,7.29,0,0,1-1.61,2.69,7.6,7.6,0,0,1-2.68,1.83A9.9,9.9,0,0,1,107.44,30.71Z"/><path class="cls-1" d="M122.06,30.5a2.07,2.07,0,0,1-1.23-.28,1.17,1.17,0,0,1-.46-.71,4,4,0,0,1-.1-.94V14.8a3.49,3.49,0,0,1,.11-.86,1.16,1.16,0,0,1,.5-.68,2.35,2.35,0,0,1,1.25-.26,2.18,2.18,0,0,1,1.09.21,3.38,3.38,0,0,1,.7.59l9.81,10.51V14.8a3.49,3.49,0,0,1,.1-.86,1.18,1.18,0,0,1,.49-.68,2.29,2.29,0,0,1,1.24-.26,2.1,2.1,0,0,1,1.25.28,1.11,1.11,0,0,1,.45.71,4.7,4.7,0,0,1,.08.94V28.59a4.56,4.56,0,0,1-.09.92,1.12,1.12,0,0,1-.48.71,2,2,0,0,1-1.21.28,3.15,3.15,0,0,1-1-.14,1.71,1.71,0,0,1-.71-.46l-10-10.58v9.27a4.56,4.56,0,0,1-.09.92,1.2,1.2,0,0,1-.48.71A2.13,2.13,0,0,1,122.06,30.5Z"/><path class="cls-1" d="M143.45,30.5a2.07,2.07,0,0,1-1.22-.28,1.2,1.2,0,0,1-.48-.71,3.51,3.51,0,0,1-.11-.94V14.88a4.46,4.46,0,0,1,.09-.91,1.2,1.2,0,0,1,.49-.72,2.19,2.19,0,0,1,1.25-.25h7a8.12,8.12,0,0,1,3.24.65,8.26,8.26,0,0,1,2.62,1.83,8.53,8.53,0,0,1,1.76,2.74,9.12,9.12,0,0,1,.63,3.44,9.33,9.33,0,0,1-.64,3.51A8.71,8.71,0,0,1,156.33,28a8.17,8.17,0,0,1-2.63,1.86,7.94,7.94,0,0,1-3.29.68Zm1.8-3.83h5.23a4.48,4.48,0,0,0,4-2.35,5.29,5.29,0,0,0,.6-2.56,5.4,5.4,0,0,0-.6-2.56,4.55,4.55,0,0,0-1.65-1.77,4.62,4.62,0,0,0-2.38-.62h-5.21Z"/><path class="cls-1" d="M171.42,30.71a11.31,11.31,0,0,1-3.94-.66,9.05,9.05,0,0,1-3.07-1.86,8.22,8.22,0,0,1-2-2.8,8.92,8.92,0,0,1-.69-3.55,9.3,9.3,0,0,1,.69-3.59,8.48,8.48,0,0,1,1.93-2.89,8.64,8.64,0,0,1,3-1.9,10.68,10.68,0,0,1,3.86-.67,11,11,0,0,1,3.91.67,9.15,9.15,0,0,1,3,1.87,8.46,8.46,0,0,1,2,2.84,9.57,9.57,0,0,1,0,7.16,8.51,8.51,0,0,1-1.95,2.85,8.9,8.9,0,0,1-3,1.87A10.51,10.51,0,0,1,171.42,30.71ZM171.31,27a7.12,7.12,0,0,0,2.43-.39,5.84,5.84,0,0,0,1.89-1.08,4.7,4.7,0,0,0,1.2-1.64,5,5,0,0,0,.42-2.08,4.92,4.92,0,0,0-.43-2.07A4.79,4.79,0,0,0,175.6,18,5.31,5.31,0,0,0,173.72,17a8.13,8.13,0,0,0-4.85,0A5.23,5.23,0,0,0,167,18a5,5,0,0,0-1.23,1.65,5.09,5.09,0,0,0,0,4.14A5,5,0,0,0,167,25.48a5.68,5.68,0,0,0,1.88,1.08A7.18,7.18,0,0,0,171.31,27Z"/><path class="cls-1" d="M76.29,55a2.07,2.07,0,0,1-1.22-.28,1.2,1.2,0,0,1-.48-.71,3.56,3.56,0,0,1-.11-.94V39.38a4.63,4.63,0,0,1,.09-.92,1.17,1.17,0,0,1,.49-.71,2.11,2.11,0,0,1,1.25-.25h7a8.12,8.12,0,0,1,3.24.65A8,8,0,0,1,89.18,40a8.37,8.37,0,0,1,1.76,2.74,9.12,9.12,0,0,1,.63,3.44,9.33,9.33,0,0,1-.64,3.51,8.94,8.94,0,0,1-1.76,2.79,8.06,8.06,0,0,1-2.63,1.86,7.94,7.94,0,0,1-3.29.68Zm1.8-3.83h5.23a4.51,4.51,0,0,0,2.36-.63,4.58,4.58,0,0,0,1.65-1.73,5.22,5.22,0,0,0,.6-2.55,5.37,5.37,0,0,0-.6-2.56,4.4,4.4,0,0,0-4-2.4H78.09Z"/><path class="cls-1" d="M96.56,55a2.16,2.16,0,0,1-1.23-.26,1.06,1.06,0,0,1-.47-.71,5.64,5.64,0,0,1-.08-.93V39.4a5.43,5.43,0,0,1,.08-.92,1.1,1.1,0,0,1,.47-.71,3,3,0,0,1,2.53,0,1.16,1.16,0,0,1,.45.71,4.7,4.7,0,0,1,.08.94v13.7a4.53,4.53,0,0,1-.09.91,1.12,1.12,0,0,1-.46.7A2.27,2.27,0,0,1,96.56,55Z"/><path class="cls-1" d="M111.46,55.21a11.84,11.84,0,0,1-3-.38,10.07,10.07,0,0,1-2.68-1.12,8.88,8.88,0,0,1-2.18-1.83,7.93,7.93,0,0,1-1.47-2.55,9.65,9.65,0,0,1-.52-3.21,9.19,9.19,0,0,1,.52-3.14,7.86,7.86,0,0,1,1.47-2.47,8.64,8.64,0,0,1,2.18-1.77,11.54,11.54,0,0,1,5.72-1.45,10.46,10.46,0,0,1,2.66.29,9.9,9.9,0,0,1,3.06,1.29,6,6,0,0,1,.85.7,1.18,1.18,0,0,1,.37.85,1.84,1.84,0,0,1-.11.57,2.94,2.94,0,0,1-.32.64,3.22,3.22,0,0,1-.73.83,1,1,0,0,1-1.24.11q-.3-.16-.63-.39a5.43,5.43,0,0,0-.76-.45,4.94,4.94,0,0,0-1.31-.41,10.07,10.07,0,0,0-2-.17,8.76,8.76,0,0,0-2.4.32,5.83,5.83,0,0,0-2,1A4.44,4.44,0,0,0,105.71,44a5,5,0,0,0-.47,2.21A4.6,4.6,0,0,0,107,50a6.11,6.11,0,0,0,2,1,8.64,8.64,0,0,0,2.37.32,7.89,7.89,0,0,0,1.88-.19,7.08,7.08,0,0,0,2.27-.94c.2-.13.4-.24.58-.34a1.19,1.19,0,0,1,.54-.13,1.07,1.07,0,0,1,.66.28,3.44,3.44,0,0,1,.7.87,3,3,0,0,1,.32.65,2,2,0,0,1,.1.61,1,1,0,0,1-.35.81,5.8,5.8,0,0,1-.86.67l-1.13.61a8.72,8.72,0,0,1-1.91.68A11.36,11.36,0,0,1,111.46,55.21Z"/><path class="cls-1" d="M136,37.5a3.57,3.57,0,0,1,.74.07.84.84,0,0,1,.57.43,2.32,2.32,0,0,1,.21,1.15,2.26,2.26,0,0,1-.21,1.12.84.84,0,0,1-.57.43,3.7,3.7,0,0,1-.76.07h-5V53.15a4.43,4.43,0,0,1-.08.9,1.14,1.14,0,0,1-.45.69,2.34,2.34,0,0,1-1.27.26,2.22,2.22,0,0,1-1.21-.26,1.07,1.07,0,0,1-.46-.7,4.63,4.63,0,0,1-.09-.92V40.77h-5a3.69,3.69,0,0,1-.76-.08,1,1,0,0,1-.57-.43,2.25,2.25,0,0,1-.21-1.14,2.14,2.14,0,0,1,.22-1.12.94.94,0,0,1,.57-.43,3.54,3.54,0,0,1,.75-.07Z"/><path class="cls-1" d="M154.94,52.28a2.44,2.44,0,0,1,.35,1,1.26,1.26,0,0,1-.28.8,3,3,0,0,1-.91.72,1.71,1.71,0,0,1-1.44.29A2.59,2.59,0,0,1,151.58,54l-5.94-10.83L139.72,54a2.63,2.63,0,0,1-1.07,1.14,1.9,1.9,0,0,1-1.45-.26,3.49,3.49,0,0,1-.92-.7,1.11,1.11,0,0,1-.27-.81,3.23,3.23,0,0,1,.35-1.09L144,38.37a2.23,2.23,0,0,1,.68-.74,1.69,1.69,0,0,1,1-.34,1.57,1.57,0,0,1,.73.16,2,2,0,0,1,.57.42,2.84,2.84,0,0,1,.4.53ZM140.6,50.92l1.54-3.36h7l1.51,3.36Z"/><path class="cls-1" d="M159.66,55a2.14,2.14,0,0,1-1.24-.28A1.12,1.12,0,0,1,158,54a4.08,4.08,0,0,1-.1-.93V39.39a4,4,0,0,1,.1-.91,1.17,1.17,0,0,1,.47-.71,2.22,2.22,0,0,1,1.26-.27h7.49a6.19,6.19,0,0,1,2.06.37,6.06,6.06,0,0,1,2,1.15,5.94,5.94,0,0,1,1.45,1.92,6.06,6.06,0,0,1,.56,2.72,6.41,6.41,0,0,1-.33,2,6,6,0,0,1-2.54,3.19,6.65,6.65,0,0,1-2.06.86h-6.8v3.3a3.91,3.91,0,0,1-.1.91,1.14,1.14,0,0,1-.47.71A2.21,2.21,0,0,1,159.66,55Zm1.83-9h5.88a2.28,2.28,0,0,0,.71-.13,2.34,2.34,0,0,0,.74-.41,2.21,2.21,0,0,0,.57-.73,2.38,2.38,0,0,0,.23-1.07,2.24,2.24,0,0,0-1.26-2.06,2.72,2.72,0,0,0-1.23-.29h-5.64Zm11,8.47c-.58.45-1,.62-1.4.52A2.25,2.25,0,0,1,170,54l-4.5-6.39,4.12-.45L173,51.78a2.85,2.85,0,0,1,.53,1,1,1,0,0,1-.13.82A3.54,3.54,0,0,1,172.51,54.45Z"/><path class="cls-1" d="M178.63,55a2.21,2.21,0,0,1-1.24-.27,1.08,1.08,0,0,1-.46-.71,4.73,4.73,0,0,1-.08-.93V39.4a4.47,4.47,0,0,1,.08-.91,1.15,1.15,0,0,1,.46-.72,3.12,3.12,0,0,1,2.54,0,1.18,1.18,0,0,1,.45.72,5.49,5.49,0,0,1,.08.94V53.12a4.46,4.46,0,0,1-.09.91,1.11,1.11,0,0,1-.47.7A2.22,2.22,0,0,1,178.63,55Z"/><path class="cls-1" d="M201.77,52.28a2.44,2.44,0,0,1,.35,1,1.26,1.26,0,0,1-.28.8,3,3,0,0,1-.91.72,1.71,1.71,0,0,1-1.44.29A2.59,2.59,0,0,1,198.41,54l-5.94-10.83L186.55,54a2.63,2.63,0,0,1-1.07,1.14,1.9,1.9,0,0,1-1.45-.26,3.49,3.49,0,0,1-.92-.7,1.11,1.11,0,0,1-.27-.81,3.23,3.23,0,0,1,.35-1.09l7.6-13.88a2.23,2.23,0,0,1,.68-.74,1.69,1.69,0,0,1,1-.34,1.57,1.57,0,0,1,.73.16,2,2,0,0,1,.57.42,2.84,2.84,0,0,1,.4.53Zm-14.34-1.36L189,47.56h7l1.51,3.36Z"/><path class="cls-1" d="M206.39,55a2.07,2.07,0,0,1-1.23-.28,1.17,1.17,0,0,1-.46-.71,4,4,0,0,1-.1-.94V39.3a3.43,3.43,0,0,1,.11-.86,1.16,1.16,0,0,1,.5-.68,2.35,2.35,0,0,1,1.25-.26,2.25,2.25,0,0,1,1.1.21,3.29,3.29,0,0,1,.69.59l9.81,10.5V39.3a3.44,3.44,0,0,1,.1-.86,1.18,1.18,0,0,1,.49-.68,2.29,2.29,0,0,1,1.24-.26,2.18,2.18,0,0,1,1.25.27,1.12,1.12,0,0,1,.45.72,4.64,4.64,0,0,1,.08.94V53.09a4.56,4.56,0,0,1-.09.92,1.12,1.12,0,0,1-.48.71,2,2,0,0,1-1.21.28,3.15,3.15,0,0,1-1-.14,1.89,1.89,0,0,1-.71-.46l-9.95-10.58v9.27a4.56,4.56,0,0,1-.09.92,1.2,1.2,0,0,1-.48.71A2.13,2.13,0,0,1,206.39,55Z"/><path class="cls-1" d="M234.58,55.21a11.27,11.27,0,0,1-3.94-.66,9.1,9.1,0,0,1-3.08-1.86,8.22,8.22,0,0,1-2-2.8,9.14,9.14,0,0,1-.68-3.56,9.47,9.47,0,0,1,.68-3.58A8.4,8.4,0,0,1,230.51,38a10.64,10.64,0,0,1,3.86-.67,10.86,10.86,0,0,1,3.9.67,9.19,9.19,0,0,1,3.06,1.87,8.19,8.19,0,0,1,2,2.84,9.54,9.54,0,0,1,0,7.15,8.32,8.32,0,0,1-1.95,2.86,8.91,8.91,0,0,1-3,1.87A10.59,10.59,0,0,1,234.58,55.21Zm-.12-3.77a7.22,7.22,0,0,0,2.44-.38A5.73,5.73,0,0,0,238.78,50,4.69,4.69,0,0,0,240,48.34a5.18,5.18,0,0,0,.41-2.08,4.85,4.85,0,0,0-1.64-3.73,5.54,5.54,0,0,0-1.88-1.08,8.16,8.16,0,0,0-4.86,0,5.54,5.54,0,0,0-1.88,1.08,5.1,5.1,0,0,0-1.23,1.66,5.09,5.09,0,0,0,0,4.14A4.82,4.82,0,0,0,230.14,50,5.73,5.73,0,0,0,232,51.06,7.22,7.22,0,0,0,234.46,51.44Z"/><ellipse class="cls-2" cx="37.92" cy="34" rx="29.06" ry="27.15"/><path class="cls-3" d="M37.92,7.71C53.47,7.71,66.13,19.5,66.13,34S53.47,60.29,37.92,60.29,9.71,48.5,9.71,34,22.36,7.71,37.92,7.71m0-1.71C21.39,6,8,18.54,8,34S21.39,62,37.92,62,67.83,49.46,67.83,34,54.44,6,37.92,6Z"/><path class="cls-1" d="M21.3,27.85a4.35,4.35,0,1,1,4.17-4.35A4.27,4.27,0,0,1,21.3,27.85Z"/><path class="cls-4" d="M21.3,20A3.5,3.5,0,1,1,18,23.5,3.42,3.42,0,0,1,21.3,20m0-1.71h0a4.93,4.93,0,0,0-3.59,1.56,5.28,5.28,0,0,0-1.44,3.65,5.12,5.12,0,0,0,5,5.2,4.9,4.9,0,0,0,3.58-1.55,5.32,5.32,0,0,0,0-7.3,4.91,4.91,0,0,0-3.58-1.56Z"/><ellipse class="cls-1" cx="54.54" cy="44.5" rx="4.18" ry="4.35"/><path class="cls-4" d="M54.54,41a3.5,3.5,0,1,1-3.33,3.5A3.42,3.42,0,0,1,54.54,41m0-1.71h0a5.21,5.21,0,0,0,0,10.42,4.91,4.91,0,0,0,3.58-1.56,5.28,5.28,0,0,0,1.44-3.65,5.12,5.12,0,0,0-5-5.21Z"/><path class="cls-1" d="M42.9,38.35a2.45,2.45,0,0,1-1.79-.77,2.66,2.66,0,0,1,0-3.65,2.49,2.49,0,0,1,.61-.47l.2-.1h0c4-2,6.65-3.86,6.79-4.51h0s-.6-1-7.64-1l-2.16,0h-1A7.69,7.69,0,0,1,30.42,20a7.69,7.69,0,0,1,7.5-7.85c11.75,0,22.45,7.08,22.45,14.85S45.21,38.16,43.17,38.34Z"/><path class="cls-4" d="M37.92,13c11.6,0,21.6,7,21.6,14,0,6.78-14,10.28-16.43,10.49H42.9A1.61,1.61,0,0,1,41.73,37a1.82,1.82,0,0,1,0-2.48,1.56,1.56,0,0,1,.54-.38s7.62-3.65,7.28-5.38c-.31-1.56-5-1.78-8.48-1.78-1.38,0-2.54,0-3.15,0a6.82,6.82,0,0,1-6.65-7,6.82,6.82,0,0,1,6.65-7m0-1.71A8.55,8.55,0,0,0,29.56,20a8.55,8.55,0,0,0,8.36,8.71l1,0,2.15,0a26.29,26.29,0,0,1,6.22.5,32.83,32.83,0,0,1-5.74,3.42l-.2.09-.09,0h0a3.3,3.3,0,0,0-.75.6,3.51,3.51,0,0,0,0,4.82,3.3,3.3,0,0,0,2.41,1.05,2.34,2.34,0,0,0,.38,0C45.49,39,61.23,35.5,61.23,27c0-8.22-11.12-15.71-23.31-15.71Z"/><path class="cls-1" d="M37.92,55.85c-11.75,0-22.46-7.08-22.46-14.85s15.16-11.16,17.2-11.34h.27a2.44,2.44,0,0,1,1.79.77,2.69,2.69,0,0,1,0,3.66,2.46,2.46,0,0,1-.8.56c-3,1.42-6.62,3.7-6.8,4.52h0s.59,1,7.64,1l2.16,0h1a7.86,7.86,0,0,1,0,15.7Z"/><path class="cls-4" d="M32.93,30.5A1.59,1.59,0,0,1,34.1,31a1.82,1.82,0,0,1,0,2.48,1.66,1.66,0,0,1-.54.38s-7.62,3.65-7.28,5.38c.31,1.56,5,1.79,8.48,1.79,1.38,0,2.55,0,3.16,0a7,7,0,0,1,0,14c-11.6,0-21.61-7-21.61-14,0-6.78,14-10.28,16.43-10.49h.19m0-1.71-.35,0c-2.23.2-18,3.69-18,12.19,0,8.22,11.12,15.71,23.32,15.71a8.72,8.72,0,0,0,0-17.42l-1,0-2.15,0a26.41,26.41,0,0,1-6.23-.5,34.34,34.34,0,0,1,5.74-3.41,3.32,3.32,0,0,0,1.07-.76,3.49,3.49,0,0,0,0-4.82,3.33,3.33,0,0,0-2.41-1.05Z"/></svg>